:SAMPLES-PER-SECOND 30
:FULLY-SPECIFIED
:DEGREES
26
root  35.08464783 36.51272931 -14.84680476 9.896994591 1.258537531 3.068502426
lowerback  -8.634189606 0.4800090194 1.877449751
upperback  -3.923979998 0.172547996 -2.357340097
thorax  0.7924209833 -0.1054589972 -3.480609894
lowerneck  -16.77000046 1.897469997 1.471690059
upperneck  14.60249996 1.421329975 3.681930065
head  7.22641468 1.061281562 1.114365578
lclavicle  0 -4.497500157e-015 -2.743230041e-014
lhumerus  -43.68849945 24.88739967 71.98930359
lradius  -0.05159476772 -6.507048965e-006 27.99769783
lwrist  4.824992743e-007 -3.790274832e-007 -29.54039955
lhand  -3.512481271e-031 -36.95000076 -10.71609974
lfingers  90 7.125020027 -90
lthumb  94.84828949 -25.54945183 101.1262741
rclavicle  0 -4.497500157e-015 -2.743230041e-014
rhumerus  -38.29069901 -18.05809975 -73.15720367
rradius  -5.16745672e-007 2.214343908e-008 56.62319946
rwrist  1.380293725e-006 2.528095422e-007 -159.8769989
rhand  -3.014014362e-031 -2.574810028 -7.73443985
rfingers  -90 -7.125020027 -90
rthumb  -86.58805084 -7.934849739 -66.64129639
rfemur  -13.2804451 14.65155029 13.45119953
rtibia  -1.107411146 0.7760750651 21.45941162
rfoot  -0.8270882368 -18.80607796 -39.93169403
rtoes  4.052459717 19.61048698 -101.9246216
lfemur  -11.03691006 -17.31427765 -18.40939903
ltibia  1.422847986 1.147775769 16.41359711
lfoot  0.5061545372 -28.56511116 33.60181808
ltoes  -8.717515945 -18.07056618 -116.3044357
27
root  35.08585832 36.51391878 -14.84379355 9.900669098 1.254624128 3.103423595
lowerback  -8.702630043 0.5024770498 1.91764009
upperback  -3.902650118 0.1998659968 -2.368079901
thorax  0.8543099761 -0.09079019725 -3.512379885
lowerneck  -16.80920029 1.897950053 1.487120032
upperneck  14.58640003 1.409590006 3.722660065
head  7.228035927 1.060676455 1.124205232
lclavicle  0 -4.497500157e-015 -2.743230041e-014
lhumerus  -43.62960052 24.88030052 72.00229645
lradius  -0.05233097449 -6.507048965e-006 28.00079918
lwrist  4.824992743e-007 -3.790274832e-007 -29.51779938
lhand  -3.519128829e-031 -36.95059967 -10.63599968
lfingers  90 7.125020027 -90
lthumb  94.83142853 -25.47070885 101.1195602
rclavicle  0 -4.497500157e-015 -2.743230041e-014
rhumerus  -37.24259949 -17.58310127 -73.49359894
rradius  -5.16745672e-007 2.214343908e-008 57.58459854
rwrist  1.380293725e-006 2.528095422e-007 -160.3769989
rhand  -3.020376775e-031 -2.507760048 -7.639910221
rfingers  -90 -7.125020027 -90
rthumb  -86.53787994 -8.025252342 -66.57076263
rfemur  -13.31183529 14.62678623 13.42696285
rtibia  -1.128415823 0.7595977783 21.52485085
rfoot  -0.8559374213 -18.83640862 -39.91634369
rtoes  4.050399303 19.61081123 -101.9184799
lfemur  -10.97088242 -17.25664902 -18.48003006
ltibia  1.488426328 1.161934376 16.29829025
lfoot  0.4987596571 -28.54028893 33.5715332
ltoes  -8.712032318 -18.07314301 -116.2867584
28
root  35.08648309 36.5162917 -14.84122089 9.951512337 1.239141464 3.108629704
lowerback  -8.721199989 0.5122789741 1.882620096
upperback  -3.875230074 0.218069002 -2.373559952
thorax  0.8941779733 -0.07948320359 -3.496680021
lowerneck  -16.78809929 1.89739871 1.508919954
upperneck  14.51589966 1.404800057 3.746609926
head  7.201660156 1.059393048 1.126809955
lclavicle  0 -4.497500157e-015 -2.743230041e-014
lhumerus  -43.59759903 24.88069916 71.99220276
lradius  -0.05306376889 -6.507048965e-006 28.00420189
lwrist  4.824992743e-007 -3.790274832e-007 -29.49839973
lhand  -3.522259407e-031 -36.98699951 -10.59319973
lfingers  90 7.125020027 -90
lthumb  94.8392868 -25.42742348 101.1545105
rclavicle  0 -4.497500157e-015 -2.743230041e-014
rhumerus  -36.2118988 -17.02039909 -73.88110352
rradius  -5.16745672e-007 2.214343908e-008 58.62739944
rwrist  1.380293725e-006 2.528095422e-007 -161.1920013
rhand  -3.03566597e-031 -2.322849989 -7.412879944
rfingers  -90 -7.125020027 -90
rthumb  -86.41201019 -8.243016243 -66.37767029
rfemur  -13.39614391 14.70030212 13.40943909
rtibia  -1.145303369 0.7777011395 21.56365395
rfoot  -0.8682849407 -18.77589035 -39.95042801
rtoes  4.076469421 19.61110115 -101.9962006
lfemur  -11.06072521 -17.25657272 -18.4584198
ltibia  1.46389401 1.151405692 16.34141731
lfoot  0.4875199795 -28.52392387 33.54582596
ltoes  -8.685216904 -18.08571053 -116.2003479
29
root  35.08689159 36.52305303 -14.83650658 9.993994713 1.254894137 3.098032236
lowerback  -8.73445034 0.5189309716 1.855069995
upperback  -3.849560022 0.2312700003 -2.395169973
thorax  0.9289569855 -0.07121960074 -3.502429962
lowerneck  -16.80610085 1.895560026 1.526059985
upperneck  14.47749996 1.388000011 3.790240049
head  7.192420006 1.057430029 1.136229992
lclavicle  0 -4.497500157e-015 -2.743230041e-014
lhumerus  -43.55039978 24.79470062 72.04090118
lradius  -0.05379348993 -6.507048965e-006 28.03759766
lwrist  4.824992743e-007 -3.790274832e-007 -29.42000008
lhand  -3.522214873e-031 -36.94179916 -10.60009956
lfingers  90 7.125020027 -90
lthumb  94.81964874 -25.43580246 101.1068497
rclavicle  0 -4.497500157e-015 -2.743230041e-014
rhumerus  -35.17399979 -16.32670021 -74.30410004
rradius  -5.16745672e-007 2.214343908e-008 59.75859833
rwrist  1.380293725e-006 2.528095422e-007 -161.7480011
rhand  -3.033915194e-031 -2.254040003 -7.439350128
rfingers  -90 -7.125020027 -90
rthumb  -86.40977478 -8.222394943 -66.31215668
rfemur  -13.40136909 14.73795414 13.41159344
rtibia  -1.13441968 0.7894713283 21.50658226
rfoot  -0.8423914909 -18.72381401 -39.97973633
rtoes  4.056153774 19.61135674 -101.9356384
lfemur  -11.15086555 -17.36116219 -18.42317009
ltibia  1.425888777 1.101087809 16.42219734
lfoot  0.4612585604 -28.44156837 33.51901245
ltoes  -8.652820587 -18.10082817 -116.0960388
30
root  35.08732713 36.5235967 -14.83175323 10.01202297 1.266278982 3.095798016
lowerback  -8.773750305 0.5297610164 1.844850421
upperback  -3.829509974 0.2473769933 -2.412090063
thorax  0.9725409746 -0.06200129911 -3.512919903
lowerneck  -16.78860092 1.890890002 1.556730032
upperneck  14.38949966 1.374040008 3.813119888
head  7.161089897 1.053429961 1.136000037
lclavicle  0 -4.497500157e-015 -2.743230041e-014
lhumerus  -43.48910141 24.73830032 72.07279968
lradius  -0.05452048779 -6.507048965e-006 28.04929924
lwrist  4.824992743e-007 -3.790274832e-007 -29.40159988
lhand  -3.523108897e-031 -36.98189926 -10.58370018
lfingers  90 7.125020027 -90
lthumb  94.83488464 -25.4183197 101.1482162
rclavicle  0 -4.497500157e-015 -2.743230041e-014
rhumerus  -34.15980148 -15.54360008 -74.66359711
rradius  -5.16745672e-007 2.214343908e-008 60.96910095
rwrist  1.380293725e-006 2.528095422e-007 -162.3739929
rhand  -3.02833081e-031 -2.331619978 -7.522240162
rfingers  -90 -7.125020027 -90
rthumb  -86.457901 -8.142381668 -66.39250946
rfemur  -13.38842773 14.73765373 13.4056778
rtibia  -1.123024106 0.7768775225 21.46482849
rfoot  -0.8449108601 -18.74073982 -40.02523804
rtoes  4.073592663 19.6115799 -101.9876251
lfemur  -11.16662216 -17.30930138 -18.41658783
ltibia  1.43262434 1.123089075 16.4206028
lfoot  0.4654761851 -28.48176575 33.47927475
ltoes  -8.694286346 -18.08146477 -116.2295685
31
root  35.08788882 36.51714776 -14.82514809 10.01487541 1.25275743 3.111718893
lowerback  -8.816989899 0.5626279712 1.865869641
upperback  -3.820709944 0.2893239856 -2.423049927
thorax  1.008700013 -0.04070359841 -3.53241992
lowerneck  -16.77179909 1.872020006 1.546919942
upperneck  14.32269955 1.345999956 3.856389999
head  7.136509895 1.042389989 1.147699952
lclavicle  0 -4.497500157e-015 -2.743230041e-014
lhumerus  -43.41279984 24.75200081 72.07700348
lradius  -0.05524509028 -6.507048965e-006 28.01110077
lwrist  4.824992743e-007 -3.790274832e-007 -29.48009872
lhand  -3.527241064e-031 -36.95119858 -10.53829956
lfingers  90 7.125020027 -90
lthumb  94.81083679 -25.374897 101.1111679
rclavicle  0 -4.497500157e-015 -2.743230041e-014
rhumerus  -33.08259964 -15.03450108 -74.93789673
rradius  -5.16745672e-007 2.214343908e-008 62.09500122
rwrist  1.380293725e-006 2.528095422e-007 -162.9880066
rhand  -3.03745187e-031 -2.314559937 -7.386290073
rfingers  -90 -7.125020027 -90
rthumb  -86.39967346 -8.267800331 -66.36799622
rfemur  -13.38155365 14.70352077 13.38196468
rtibia  -1.124157786 0.7334713936 21.46224976
rfoot  -0.8629746437 -18.82633209 -40.02004242
rtoes  4.083997726 19.61177254 -102.0186462
lfemur  -11.07146072 -17.24417877 -18.47467422
ltibia  1.508625746 1.183755159 16.28359985
lfoot  0.4890562594 -28.54954338 33.50738907
ltoes  -8.736796379 -18.06149292 -116.3666077
32
root  35.08311895 36.51497308 -14.81828314 10.04196644 1.358071327 3.086644888
lowerback  -8.850688934 0.5452079773 1.852479815
upperback  -3.812099934 0.2668899894 -2.441960096
thorax  1.034469962 -0.05163209885 -3.546819925
lowerneck  -16.74360085 1.865170002 1.58307004
upperneck  14.27750015 1.330629945 3.853859901
head  7.117579937 1.035840034 1.13846004
lclavicle  0 -4.497500157e-015 -2.743230041e-014
lhumerus  -43.37590027 24.73999977 72.08830261
lradius  -0.05596764386 -6.507048965e-006 27.9817009
lwrist  4.824992743e-007 -3.790274832e-007 -29.53660011
lhand  -3.526441704e-031 -36.97629929 -10.54440022
lfingers  90 7.125020027 -90
lthumb  94.82388306 -25.38002014 101.1386337
rclavicle  0 -4.497500157e-015 -2.743230041e-014
rhumerus  -31.97839928 -14.4499979 -75.18650055
rradius  -5.16745672e-007 2.214343908e-008 63.22689819
rwrist  1.380293725e-006 2.528095422e-007 -163.4360046
rhand  -3.041662698e-031 -2.216109991 -7.323999882
rfingers  -90 -7.125020027 -90
rthumb  -86.35572815 -8.329972267 -66.26843262
rfemur  -13.37794399 14.67284012 13.41602516
rtibia  -1.114408016 0.7675173879 21.42944908
rfoot  -0.8558627963 -18.76612854 -40.06976318
rtoes  4.056864262 19.61193466 -101.9377518
lfemur  -11.06867123 -17.19079018 -18.43312263
ltibia  1.539287448 1.272984743 16.24953079
lfoot  0.5204657912 -28.70449066 33.46227264
ltoes  -8.727834702 -18.06571388 -116.3377075
